<svg width="26" height="26" viewBox="0 0 26 26" fill="none" xmlns="http://www.w3.org/2000/svg">
<path d="M20.5837 9.75H19.5003V4.33334H8.66699V21.6667H23.8337V13C23.8337 11.2017 22.382 9.75 20.5837 9.75ZM10.8337 6.5H17.3337V9.75H10.8337V6.5ZM15.167 18.4167H10.8337V13H15.167V18.4167ZM17.3337 18.4167C16.7378 18.4167 16.2503 17.9292 16.2503 17.3333C16.2503 16.7375 16.7378 16.25 17.3337 16.25C17.9295 16.25 18.417 16.7375 18.417 17.3333C18.417 17.9292 17.9295 18.4167 17.3337 18.4167ZM17.3337 15.1667C16.7378 15.1667 16.2503 14.6792 16.2503 14.0833C16.2503 13.4875 16.7378 13 17.3337 13C17.9295 13 18.417 13.4875 18.417 14.0833C18.417 14.6792 17.9295 15.1667 17.3337 15.1667ZM20.5837 18.4167C19.9878 18.4167 19.5003 17.9292 19.5003 17.3333C19.5003 16.7375 19.9878 16.25 20.5837 16.25C21.1795 16.25 21.667 16.7375 21.667 17.3333C21.667 17.9292 21.1795 18.4167 20.5837 18.4167ZM20.5837 15.1667C19.9878 15.1667 19.5003 14.6792 19.5003 14.0833C19.5003 13.4875 19.9878 13 20.5837 13C21.1795 13 21.667 13.4875 21.667 14.0833C21.667 14.6792 21.1795 15.1667 20.5837 15.1667ZM4.87533 8.66667C4.15703 8.66667 3.46816 8.95201 2.96024 9.45992C2.45233 9.96783 2.16699 10.6567 2.16699 11.375V20.0417C2.16699 20.76 2.45233 21.4488 2.96024 21.9568C3.46816 22.4647 4.15703 22.75 4.87533 22.75C5.59362 22.75 6.2825 22.4647 6.79041 21.9568C7.29832 21.4488 7.58366 20.76 7.58366 20.0417V11.375C7.58366 11.0193 7.51361 10.6672 7.3775 10.3386C7.24139 10.01 7.0419 9.71141 6.79041 9.45992C6.53891 9.20843 6.24035 9.00894 5.91176 8.87283C5.58317 8.73672 5.23099 8.66667 4.87533 8.66667Z" fill="#FFE500"/>
</svg>
