<svg width="24" height="24" viewBox="0 0 24 24" fill="none" xmlns="http://www.w3.org/2000/svg">
<g clip-path="url(#clip0_2003_5556)">
<path fill-rule="evenodd" clip-rule="evenodd" d="M3.06282 0.830316C3.34714 0.546397 3.68856 0.32615 4.06443 0.18417C4.44031 0.0421901 4.84206 -0.0182805 5.24308 0.00676545C5.64409 0.0318114 6.0352 0.141802 6.39049 0.329449C6.74578 0.517095 7.05714 0.778112 7.30394 1.0952L10.2207 4.84263C10.7553 5.53003 10.9438 6.42545 10.7326 7.27049L9.84373 10.8294C9.79778 11.0137 9.80026 11.2068 9.85094 11.3899C9.90162 11.573 9.99877 11.7399 10.133 11.8743L14.1255 15.8671C14.2601 16.0016 14.4272 16.0989 14.6106 16.1496C14.794 16.2003 14.9874 16.2027 15.1719 16.1564L18.729 15.2675C19.1459 15.1632 19.5812 15.1551 20.0017 15.2438C20.4223 15.3325 20.8172 15.5156 21.1566 15.7794L24.9038 18.6948C26.2508 19.7429 26.3743 21.7336 25.1686 22.9378L23.4884 24.6182C22.286 25.8207 20.4888 26.3489 18.8134 25.759C14.5255 24.2501 10.6323 21.7951 7.42256 18.5761C4.204 15.3666 1.74922 11.4737 0.240281 7.18598C-0.34795 5.51216 0.180158 3.7132 1.38262 2.51064L3.06282 0.830316Z" fill="#FFE500"/>
</g>
<defs>
<clipPath id="clip0_2003_5556">
<rect width="24" height="24" fill="white"/>
</clipPath>
</defs>
</svg>
